G04*
G04 #@! TF.GenerationSoftware,Altium Limited,Altium Designer,25.4.2 (15)*
G04*
G04 Layer_Color=2752767*
%FSLAX44Y44*%
%MOMM*%
G71*
G04*
G04 #@! TF.SameCoordinates,D5283B10-4766-4311-8C28-4DB947979AFB*
G04*
G04*
G04 #@! TF.FilePolarity,Positive*
G04*
G01*
G75*
%ADD40C,0.1270*%
%ADD41C,0.1693*%
D40*
X256709Y22461D02*
X251629Y32621D01*
X261789D01*
X256709Y22461D01*
Y47861D02*
X251629Y58021D01*
X261789D01*
X256709Y47861D01*
X21590Y119380D02*
X16510Y129540D01*
X26670D01*
X21590Y119380D01*
Y93980D02*
X16510Y104140D01*
X26670D01*
X21590Y93980D01*
X115541Y47180D02*
Y57340D01*
X125701D01*
Y47180D01*
X115541D01*
Y39180D02*
Y49340D01*
X125701D01*
Y39180D01*
X115541D01*
D41*
X220980Y21590D02*
G03*
X220980Y21590I-5080J0D01*
G01*
X91754Y47511D02*
G03*
X91754Y47511I-5080J0D01*
G01*
X74930Y128270D02*
G03*
X74930Y128270I-5080J0D01*
G01*
X116339Y31615D02*
G03*
X116339Y31615I-5080J0D01*
G01*
X105220Y34555D02*
G03*
X105220Y34555I-5080J0D01*
G01*
X106498Y59370D02*
G03*
X106498Y59370I-5080J0D01*
G01*
X89062Y63253D02*
G03*
X89062Y63253I-5080J0D01*
G01*
X66040Y128270D02*
G03*
X66040Y128270I-5080J0D01*
G01*
X100330Y93980D02*
G03*
X100330Y93980I-5080J0D01*
G01*
X37599Y54242D02*
G03*
X37599Y54242I-5080J0D01*
G01*
X38100Y63500D02*
G03*
X38100Y63500I-5080J0D01*
G01*
X135388Y31959D02*
G03*
X135388Y31959I-5080J0D01*
G01*
M02*
