G04*
G04 #@! TF.GenerationSoftware,Altium Limited,Altium Designer,25.4.2 (15)*
G04*
G04 Layer_Color=128*
%FSLAX44Y44*%
%MOMM*%
G71*
G04*
G04 #@! TF.SameCoordinates,D5283B10-4766-4311-8C28-4DB947979AFB*
G04*
G04*
G04 #@! TF.FilePolarity,Positive*
G04*
G01*
G75*
%ADD40C,0.1270*%
D40*
X252899Y27541D02*
X260519D01*
X256709Y23731D02*
Y31351D01*
X252899Y52941D02*
X260519D01*
X256709Y49131D02*
Y56751D01*
X17780Y124460D02*
X25400D01*
X21590Y120650D02*
Y128270D01*
X17780Y99060D02*
X25400D01*
X21590Y95250D02*
Y102870D01*
X214884Y21590D02*
X216916D01*
X215900Y20574D02*
Y22606D01*
X85658Y47511D02*
X87690D01*
X86674Y46495D02*
Y48527D01*
X68834Y128270D02*
X70866D01*
X69850Y127254D02*
Y129286D01*
X110243Y31615D02*
X112275D01*
X111259Y30599D02*
Y32631D01*
X99124Y34555D02*
X101156D01*
X100140Y33539D02*
Y35571D01*
X100402Y59370D02*
X102434D01*
X101418Y58354D02*
Y60386D01*
X82966Y63253D02*
X84998D01*
X83982Y62237D02*
Y64269D01*
X59944Y128270D02*
X61976D01*
X60960Y127254D02*
Y129286D01*
X94234Y93980D02*
X96266D01*
X95250Y92964D02*
Y94996D01*
X119621Y52260D02*
X121621D01*
X120621Y51260D02*
Y53260D01*
X119621Y44260D02*
X121621D01*
X120621Y43260D02*
Y45260D01*
X31503Y54242D02*
X33535D01*
X32519Y53226D02*
Y55258D01*
X32004Y63500D02*
X34036D01*
X33020Y62484D02*
Y64516D01*
X129292Y31959D02*
X131324D01*
X130308Y30943D02*
Y32975D01*
M02*
