G04*
G04 #@! TF.GenerationSoftware,Altium Limited,Altium Designer,25.4.2 (15)*
G04*
G04 Layer_Color=65535*
%FSLAX44Y44*%
%MOMM*%
G71*
G04*
G04 #@! TF.SameCoordinates,D5283B10-4766-4311-8C28-4DB947979AFB*
G04*
G04*
G04 #@! TF.FilePolarity,Positive*
G04*
G01*
G75*
%ADD10C,0.2500*%
%ADD11C,0.1500*%
%ADD12C,0.1700*%
%ADD13C,0.2000*%
%ADD14C,0.0508*%
D10*
X35927Y63310D02*
G03*
X35927Y63310I-1250J0D01*
G01*
D11*
X198970Y28750D02*
Y34750D01*
X209970Y28750D02*
Y34750D01*
X163262Y70981D02*
Y74980D01*
X163250Y81820D02*
Y85820D01*
X65595Y77090D02*
Y81090D01*
Y107570D02*
Y111570D01*
Y117730D02*
Y121730D01*
X68935Y99830D02*
X74935D01*
X68935Y88830D02*
X74935D01*
X93250Y72390D02*
X97250D01*
D12*
X109871Y36760D02*
X111621D01*
X129621D02*
X131371D01*
X129621Y59760D02*
X131371D01*
X109871D02*
X116371D01*
D13*
X172990Y62170D02*
X174990D01*
X172990Y41970D02*
X174990D01*
X57327Y68760D02*
X60527D01*
X57327Y38760D02*
X60527D01*
D14*
X118790Y64815D02*
Y62699D01*
X119213Y62276D01*
X120059D01*
X120482Y62699D01*
Y64815D01*
X123021Y62276D02*
X121329D01*
X123021Y63969D01*
Y64392D01*
X122598Y64815D01*
X121752D01*
X121329Y64392D01*
X44027Y74930D02*
Y72814D01*
X44450Y72390D01*
X45297D01*
X45720Y72814D01*
Y74930D01*
X46566Y72390D02*
X47413D01*
X46990D01*
Y74930D01*
X46566Y74506D01*
X51224Y118110D02*
Y120650D01*
X52494D01*
X52917Y120226D01*
Y119380D01*
X52494Y118957D01*
X51224D01*
X52070D02*
X52917Y118110D01*
X55456Y120650D02*
X54610Y120226D01*
X53763Y119380D01*
Y118534D01*
X54186Y118110D01*
X55033D01*
X55456Y118534D01*
Y118957D01*
X55033Y119380D01*
X53763D01*
X173144Y82550D02*
Y85090D01*
X174414D01*
X174837Y84666D01*
Y83820D01*
X174414Y83397D01*
X173144D01*
X173990D02*
X174837Y82550D01*
X177376Y85090D02*
X175683D01*
Y83820D01*
X176530Y84243D01*
X176953D01*
X177376Y83820D01*
Y82974D01*
X176953Y82550D01*
X176106D01*
X175683Y82974D01*
X173144Y71120D02*
Y73660D01*
X174414D01*
X174837Y73236D01*
Y72390D01*
X174414Y71967D01*
X173144D01*
X173990D02*
X174837Y71120D01*
X176953D02*
Y73660D01*
X175683Y72390D01*
X177376D01*
X100850Y71116D02*
Y73655D01*
X102120D01*
X102543Y73232D01*
Y72385D01*
X102120Y71962D01*
X100850D01*
X101697D02*
X102543Y71116D01*
X103390Y73232D02*
X103813Y73655D01*
X104659D01*
X105083Y73232D01*
Y72808D01*
X104659Y72385D01*
X104236D01*
X104659D01*
X105083Y71962D01*
Y71539D01*
X104659Y71116D01*
X103813D01*
X103390Y71539D01*
X51224Y107950D02*
Y110490D01*
X52494D01*
X52917Y110066D01*
Y109220D01*
X52494Y108797D01*
X51224D01*
X52070D02*
X52917Y107950D01*
X55456D02*
X53763D01*
X55456Y109643D01*
Y110066D01*
X55033Y110490D01*
X54186D01*
X53763Y110066D01*
X51647Y77470D02*
Y80010D01*
X52917D01*
X53340Y79586D01*
Y78740D01*
X52917Y78317D01*
X51647D01*
X52494D02*
X53340Y77470D01*
X54186D02*
X55033D01*
X54610D01*
Y80010D01*
X54186Y79586D01*
X195157Y54610D02*
Y52070D01*
X196850D01*
X197696D02*
X198543D01*
X198120D01*
Y54610D01*
X197696Y54186D01*
X216747Y33946D02*
X216324Y34370D01*
X215477D01*
X215054Y33946D01*
Y32254D01*
X215477Y31830D01*
X216324D01*
X216747Y32254D01*
X219286Y31830D02*
X217593D01*
X219286Y33523D01*
Y33946D01*
X218863Y34370D01*
X218016D01*
X217593Y33946D01*
X53340Y96096D02*
X52917Y96520D01*
X52070D01*
X51647Y96096D01*
Y94404D01*
X52070Y93980D01*
X52917D01*
X53340Y94404D01*
X54186Y93980D02*
X55033D01*
X54610D01*
Y96520D01*
X54186Y96096D01*
M02*
