G04*
G04 #@! TF.GenerationSoftware,Altium Limited,Altium Designer,25.4.2 (15)*
G04*
G04 Layer_Color=8388736*
%FSLAX44Y44*%
%MOMM*%
G71*
G04*
G04 #@! TF.SameCoordinates,D5283B10-4766-4311-8C28-4DB947979AFB*
G04*
G04*
G04 #@! TF.FilePolarity,Negative*
G04*
G01*
G75*
%ADD23R,1.3300X0.5600*%
%ADD24C,2.0320*%
G04:AMPARAMS|DCode=25|XSize=1.5032mm|YSize=0.9632mm|CornerRadius=0.1966mm|HoleSize=0mm|Usage=FLASHONLY|Rotation=0.000|XOffset=0mm|YOffset=0mm|HoleType=Round|Shape=RoundedRectangle|*
%AMROUNDEDRECTD25*
21,1,1.5032,0.5700,0,0,0.0*
21,1,1.1100,0.9632,0,0,0.0*
1,1,0.3932,0.5550,-0.2850*
1,1,0.3932,-0.5550,-0.2850*
1,1,0.3932,-0.5550,0.2850*
1,1,0.3932,0.5550,0.2850*
%
%ADD25ROUNDEDRECTD25*%
G04:AMPARAMS|DCode=26|XSize=0.4532mm|YSize=0.7032mm|CornerRadius=0.1516mm|HoleSize=0mm|Usage=FLASHONLY|Rotation=90.000|XOffset=0mm|YOffset=0mm|HoleType=Round|Shape=RoundedRectangle|*
%AMROUNDEDRECTD26*
21,1,0.4532,0.4000,0,0,90.0*
21,1,0.1500,0.7032,0,0,90.0*
1,1,0.3032,0.2000,0.0750*
1,1,0.3032,0.2000,-0.0750*
1,1,0.3032,-0.2000,-0.0750*
1,1,0.3032,-0.2000,0.0750*
%
%ADD26ROUNDEDRECTD26*%
G04:AMPARAMS|DCode=27|XSize=1.1032mm|YSize=1.8032mm|CornerRadius=0.1511mm|HoleSize=0mm|Usage=FLASHONLY|Rotation=0.000|XOffset=0mm|YOffset=0mm|HoleType=Round|Shape=RoundedRectangle|*
%AMROUNDEDRECTD27*
21,1,1.1032,1.5010,0,0,0.0*
21,1,0.8010,1.8032,0,0,0.0*
1,1,0.3022,0.4005,-0.7505*
1,1,0.3022,-0.4005,-0.7505*
1,1,0.3022,-0.4005,0.7505*
1,1,0.3022,0.4005,0.7505*
%
%ADD27ROUNDEDRECTD27*%
G04:AMPARAMS|DCode=28|XSize=0.7532mm|YSize=0.7032mm|CornerRadius=0.1641mm|HoleSize=0mm|Usage=FLASHONLY|Rotation=270.000|XOffset=0mm|YOffset=0mm|HoleType=Round|Shape=RoundedRectangle|*
%AMROUNDEDRECTD28*
21,1,0.7532,0.3750,0,0,270.0*
21,1,0.4250,0.7032,0,0,270.0*
1,1,0.3282,-0.1875,-0.2125*
1,1,0.3282,-0.1875,0.2125*
1,1,0.3282,0.1875,0.2125*
1,1,0.3282,0.1875,-0.2125*
%
%ADD28ROUNDEDRECTD28*%
%ADD29R,1.4332X2.4232*%
G04:AMPARAMS|DCode=30|XSize=1.5032mm|YSize=0.9632mm|CornerRadius=0.1966mm|HoleSize=0mm|Usage=FLASHONLY|Rotation=90.000|XOffset=0mm|YOffset=0mm|HoleType=Round|Shape=RoundedRectangle|*
%AMROUNDEDRECTD30*
21,1,1.5032,0.5700,0,0,90.0*
21,1,1.1100,0.9632,0,0,90.0*
1,1,0.3932,0.2850,0.5550*
1,1,0.3932,0.2850,-0.5550*
1,1,0.3932,-0.2850,-0.5550*
1,1,0.3932,-0.2850,0.5550*
%
%ADD30ROUNDEDRECTD30*%
G04:AMPARAMS|DCode=31|XSize=0.7532mm|YSize=0.7032mm|CornerRadius=0.1641mm|HoleSize=0mm|Usage=FLASHONLY|Rotation=180.000|XOffset=0mm|YOffset=0mm|HoleType=Round|Shape=RoundedRectangle|*
%AMROUNDEDRECTD31*
21,1,0.7532,0.3750,0,0,180.0*
21,1,0.4250,0.7032,0,0,180.0*
1,1,0.3282,-0.2125,0.1875*
1,1,0.3282,0.2125,0.1875*
1,1,0.3282,0.2125,-0.1875*
1,1,0.3282,-0.2125,-0.1875*
%
%ADD31ROUNDEDRECTD31*%
%ADD32C,1.7272*%
%ADD33C,0.6096*%
%ADD34C,0.6400*%
D23*
X46927Y63260D02*
D03*
Y53760D02*
D03*
Y44260D02*
D03*
X70927D02*
D03*
Y53760D02*
D03*
Y63260D02*
D03*
D24*
X17780Y16510D02*
D03*
X233680D02*
D03*
Y120650D02*
D03*
D25*
X204470Y40750D02*
D03*
Y22850D02*
D03*
D26*
X111121Y55760D02*
D03*
Y50760D02*
D03*
Y45760D02*
D03*
Y40760D02*
D03*
X130121D02*
D03*
Y45760D02*
D03*
Y50760D02*
D03*
Y55760D02*
D03*
D27*
X120621Y48260D02*
D03*
D28*
X158762Y72980D02*
D03*
X167762D02*
D03*
X158750Y83820D02*
D03*
X167750D02*
D03*
X70095Y79090D02*
D03*
X61095D02*
D03*
X70095Y109570D02*
D03*
X61095D02*
D03*
Y119730D02*
D03*
X70095D02*
D03*
D29*
X163140Y52070D02*
D03*
X184840D02*
D03*
D30*
X80835Y94330D02*
D03*
X62935D02*
D03*
D31*
X95250Y67890D02*
D03*
Y76890D02*
D03*
D32*
X256709Y27541D02*
D03*
Y52941D02*
D03*
X21590Y124460D02*
D03*
Y99060D02*
D03*
D33*
X215900Y21590D02*
D03*
X86674Y47511D02*
D03*
X69850Y128270D02*
D03*
X111259Y31615D02*
D03*
X100140Y34555D02*
D03*
X101418Y59370D02*
D03*
X83982Y63253D02*
D03*
X60960Y128270D02*
D03*
X95250Y93980D02*
D03*
X32519Y54242D02*
D03*
X33020Y63500D02*
D03*
X130308Y31959D02*
D03*
D34*
X120621Y52260D02*
D03*
Y44260D02*
D03*
M02*
